<?xml version="1.0" encoding="iso-8859-1"?>
<!-- Generator: Adobe Illustrator 19.0.0, SVG Export Plug-In . SVG Version: 6.00 Build 0)  -->
<svg version="1.1" id="Capa_1" xmlns="http://www.w3.org/2000/svg" xmlns:xlink="http://www.w3.org/1999/xlink" x="0px" y="0px"
	 viewBox="0 0 511.992 511.992" style="enable-background:new 0 0 511.992 511.992;" xml:space="preserve">
<path style="fill:#7FACFA;" d="M358.591,110.623l-80.875-51.94l-80.807-51.94l-39.141,19.402l-0.269,0.404l-0.6-0.404L93.358,66.429
	c1.603,117.893,42.408,301.2,144.281,438.832c22.117-1.354,43.331-9.256,60.941-22.703
	c86.143-22.029,121.544-141.135,123.283-248.317c0.054-0.647,0.081-1.3,0.067-1.954l0.135,0.067L358.591,110.623z"/>
<path style="fill:#E3E7F2;" d="M381.711,251.825l-0.202-0.135c-1.213,89.262-25.869,187.282-84.209,230.869
	c-17.846,13.46-39.262,21.362-61.574,22.703C132.788,367.63,91.559,184.323,89.943,66.429l64.201-40.286l0.606,0.404l81.111,51.536
	l81.649,51.873L381.711,251.825z"/>
<polygon style="fill:#7FACFA;" points="357.931,110.623 317.51,129.957 235.861,78.084 154.75,26.548 155.02,26.144 194.564,6.742 
	276.214,58.682 "/>
<linearGradient id="SVGID_1_" gradientUnits="userSpaceOnUse" x1="-30.0469" y1="614.7339" x2="10.5288" y2="574.1613" gradientTransform="matrix(6.7368 0 0 -6.7368 281.1386 4260.0869)">
	<stop  offset="0" style="stop-color:#D3DFF2"/>
	<stop  offset="0.172" style="stop-color:#D3DFF2"/>
	<stop  offset="0.2" style="stop-color:#D3DFF2"/>
	<stop  offset="0.2" style="stop-color:#DAE2F2"/>
	<stop  offset="0.201" style="stop-color:#EBEAF2"/>
	<stop  offset="0.201" style="stop-color:#F6EFF2"/>
	<stop  offset="0.202" style="stop-color:#FDF2F2"/>
	<stop  offset="0.205" style="stop-color:#FFF3F2"/>
	<stop  offset="0.252" style="stop-color:#FFF3F2"/>
	<stop  offset="0.26" style="stop-color:#FFF3F2"/>
	<stop  offset="0.26" style="stop-color:#D3DFF2"/>
	<stop  offset="0.397" style="stop-color:#D3DFF2"/>
	<stop  offset="0.42" style="stop-color:#D3DFF2"/>
	<stop  offset="0.42" style="stop-color:#DAE2F2"/>
	<stop  offset="0.421" style="stop-color:#EBEAF2"/>
	<stop  offset="0.421" style="stop-color:#F6EFF2"/>
	<stop  offset="0.422" style="stop-color:#FDF2F2"/>
	<stop  offset="0.425" style="stop-color:#FFF3F2"/>
	<stop  offset="0.489" style="stop-color:#FFF3F2"/>
	<stop  offset="0.5" style="stop-color:#FFF3F2"/>
	<stop  offset="0.5" style="stop-color:#F8F0F2"/>
	<stop  offset="0.5" style="stop-color:#E7E8F2"/>
	<stop  offset="0.5" style="stop-color:#DCE3F2"/>
	<stop  offset="0.5" style="stop-color:#D5E0F2"/>
	<stop  offset="0.501" style="stop-color:#D3DFF2"/>
	<stop  offset="0.706" style="stop-color:#D3DFF2"/>
	<stop  offset="0.74" style="stop-color:#D3DFF2"/>
	<stop  offset="0.741" style="stop-color:#FFF3F2"/>
	<stop  offset="0.835" style="stop-color:#FFF3F2"/>
	<stop  offset="0.85" style="stop-color:#FFF3F2"/>
	<stop  offset="0.851" style="stop-color:#D3DFF2"/>
</linearGradient>
<path style="fill:url(#SVGID_1_);" d="M248.283,477.27C157.856,349.124,121.498,187.913,117.294,80.199l36.762-23.053l142.644,90.65
	l57.774,109.668C351.854,358.488,318.271,460.644,248.283,477.27z"/>
<g>
	<path style="fill:#FFFFFF;" d="M262.774,498.525c-3.84,0.606-23.006,6.467-27.048,6.737
		C132.788,367.63,91.559,184.323,89.943,66.429l64.201-40.286l0.606,0.404l21.288,13.541l-63.528,39.814
		C114.06,193.619,167.651,362.779,262.774,498.525z"/>
	
		<rect x="159.721" y="13.206" transform="matrix(-0.8882 0.4595 -0.4595 -0.8882 356.8151 -40.2077)" style="fill:#FFFFFF;" width="47.158" height="20.211"/>
</g>
<g>
	<path style="fill:#428DFF;" d="M93.944,127.963c3.698-0.384,6.386-3.698,6.002-7.397c-1.819-17.489-2.897-34.438-3.207-50.452
		l57.384-36.008L312.39,134.679l62.369,118.378c-1.374,84.681-24.151,181.286-80.774,223.748c-0.397,0.222-0.768,0.478-1.112,0.781
		c-15.764,11.682-34.425,18.822-53.961,20.648c-86.305-116.869-119.537-253.066-131.683-324.213
		c-0.633-3.665-4.116-6.124-7.788-5.49c-3.658,0.633-6.117,4.103-5.497,7.761c12.463,72.946,46.746,213.212,136.386,332.998
		c1.273,1.704,3.267,2.701,5.396,2.701c0.148,0,0.296-0.007,0.445-0.013c23.309-1.388,45.716-9.526,64.491-23.41
		c91.458-24.589,126.045-150.944,127.965-253.457c0.094-0.559,0.108-1.132,0.054-1.698c0.249-1.428,0.027-2.897-0.633-4.184
		l-64.141-121.78c-0.35-0.64-0.808-1.219-1.347-1.711c-0.148-0.141-0.296-0.256-0.451-0.377c-0.175-0.162-0.357-0.317-0.552-0.458
		L198.195,1.056c-1.981-1.267-4.473-1.401-6.582-0.364l-38.366,18.829c-0.95,0.108-1.866,0.418-2.681,0.909L86.365,60.717
		c-1.987,1.246-3.18,3.442-3.153,5.787c0.209,17.522,1.327,36.183,3.335,55.457C86.938,125.659,90.246,128.34,93.944,127.963z
		 M326.739,133.022l28.267-13.554l58.495,111.076l-28.773,12.564L326.739,133.022z M328.848,461.075
		c40.373-50.93,57.68-131.757,59.297-204.75l26.725-11.675C411.683,326.953,387.235,421.968,328.848,461.075L328.848,461.075z
		 M194.153,14.455l149.933,95.305l-26.098,12.517l-149.704-95.13L194.153,14.455z"/>
	<path style="fill:#428DFF;" d="M248.283,484c0.525,0,1.044-0.061,1.556-0.182c78.355-18.614,108.96-133.475,111.372-226.18
		c0.027-1.152-0.243-2.297-0.775-3.314l-57.774-109.668c-0.546-1.037-1.354-1.913-2.351-2.54L157.667,51.46
		c-2.189-1.401-4.992-1.408-7.188-0.02l-36.762,23.053c-2.048,1.28-3.247,3.557-3.153,5.969
		c4.264,109.169,41.236,271.761,132.216,400.689C244.039,482.936,246.094,484,248.283,484z M154.029,65.116l137.538,87.403
		l56.117,106.522c-2.546,85.772-29.359,190.448-96.592,210.503c-86.264-124.374-122.05-279.622-126.9-385.72L154.029,65.116z"/>
	<path style="fill:#428DFF;" d="M161.743,123.011c-3.719,0-6.737,3.018-6.737,6.737v45.318c0,3.719,3.018,6.737,6.737,6.737
		c3.719,0,6.737-3.018,6.737-6.737v-45.318C168.48,126.03,165.462,123.011,161.743,123.011z"/>
	<path style="fill:#428DFF;" d="M188.69,174.81c-3.719,0-6.737,3.018-6.737,6.737v64.74c0,3.719,3.018,6.737,6.737,6.737
		s6.737-3.018,6.737-6.737v-64.74C195.427,177.828,192.409,174.81,188.69,174.81z"/>
	<path style="fill:#428DFF;" d="M188.69,116.537c-3.719,0-6.737,3.018-6.737,6.737v25.896c0,3.719,3.018,6.737,6.737,6.737
		s6.737-3.018,6.737-6.737v-25.896C195.427,119.555,192.409,116.537,188.69,116.537z"/>
	<path style="fill:#428DFF;" d="M215.637,200.706c-3.719,0-6.737,3.018-6.737,6.737V336.93c0,3.719,3.018,6.737,6.737,6.737
		c3.719,0,6.737-3.018,6.737-6.737V207.443C222.374,203.718,219.356,200.706,215.637,200.706z"/>
	<path style="fill:#428DFF;" d="M215.637,135.959c-3.719,0-6.737,3.018-6.737,6.737v32.37c0,3.719,3.018,6.737,6.737,6.737
		c3.719,0,6.737-3.018,6.737-6.737v-32.37C222.374,138.978,219.356,135.959,215.637,135.959z"/>
	<path style="fill:#428DFF;" d="M96.41,155.085c0.451-0.013,0.903-0.054,1.347-0.135l1.213-0.404
		c0.404-0.202,0.808-0.404,1.213-0.606c0.357-0.269,0.694-0.559,1.011-0.876c0.606-0.62,1.091-1.347,1.415-2.156
		c0.344-0.808,0.525-1.677,0.539-2.56c-0.007-0.451-0.054-0.903-0.135-1.347c-0.074-0.445-0.209-0.876-0.404-1.28
		c-0.135-0.411-0.344-0.802-0.606-1.145c-0.229-0.364-0.499-0.707-0.808-1.011c-1.597-1.57-3.853-2.277-6.063-1.886
		c-0.472,0.135-0.876,0.269-1.28,0.404c-0.404,0.202-0.808,0.404-1.145,0.606c-0.391,0.256-0.748,0.552-1.078,0.876
		c-0.29,0.323-0.559,0.66-0.808,1.011c-0.269,0.344-0.472,0.728-0.606,1.145c-0.195,0.404-0.33,0.835-0.404,1.28
		c-0.081,0.445-0.128,0.896-0.135,1.347c0.034,1.758,0.734,3.442,1.954,4.716c0.33,0.33,0.687,0.62,1.078,0.876
		c0.337,0.202,0.741,0.404,1.145,0.606c0.404,0.135,0.808,0.269,1.28,0.404C95.554,155.024,95.979,155.072,96.41,155.085z"/>
</g>
<g>
</g>
<g>
</g>
<g>
</g>
<g>
</g>
<g>
</g>
<g>
</g>
<g>
</g>
<g>
</g>
<g>
</g>
<g>
</g>
<g>
</g>
<g>
</g>
<g>
</g>
<g>
</g>
<g>
</g>
</svg>
