<svg xmlns="http://www.w3.org/2000/svg" xmlns:xlink="http://www.w3.org/1999/xlink" id="Capa_1" x="0" y="0" version="1.1" viewBox="0 0 512 512" xml:space="preserve" style="enable-background:new 0 0 512 512"><path style="fill:#ffcb61" d="M508.952,193.127c-13.198-40.622-61.198-52.041-96.155-57.096	c-18.209-2.634-36.817-3.932-52.303-4.552c-3.869-10.456-8.641-22.544-14.083-34.696c-9.354-20.89-18.52-37.298-28.018-50.16	c-18.265-24.736-39.257-37.277-62.393-37.277l-56.264,246.653l56.264,197.098c6.234,4.158,13.228,8.67,20.642,13.19	c40.688,24.811,71.256,36.366,96.2,36.366c18.81-0.004,31.857-6.617,39.492-12.164c18.717-13.599,28.328-36.084,28.566-66.833	c0.124-15.988-2.105-34.649-6.817-57.047c-2.741-13.034-5.985-25.621-9.003-36.358c8.751-6.911,18.774-15.187,28.653-24.121	c16.977-15.352,29.749-29.138,39.047-42.145C510.661,238.969,516.101,215.129,508.952,193.127z"/><path style="fill:#ffdb92" d="M193.607,46.623c-9.498,12.863-18.664,29.271-28.018,50.16c-5.442,12.152-10.214,24.24-14.083,34.696	c-15.487,0.62-34.096,1.919-52.306,4.553c-34.956,5.056-82.953,16.475-96.151,57.095c-7.149,22.003-1.708,45.843,16.172,70.86	c9.297,13.008,22.069,26.794,39.047,42.145c9.879,8.934,19.902,17.21,28.653,24.121c-3.017,10.736-6.261,23.324-9.003,36.358	c-4.71,22.397-6.941,41.059-6.817,57.047c0.239,30.748,9.85,53.234,28.567,66.835c7.637,5.549,20.688,12.163,39.485,12.163	c24.944-0.001,55.514-11.557,96.206-36.368c7.412-4.519,14.407-9.03,20.641-13.189c0.001-0.001,0.001-443.752,0.001-443.752	C232.865,9.346,211.873,21.887,193.607,46.623z"/><path style="fill:#7d2e16" d="M466.187,207.025c-10.929-33.636-138.018-31.037-138.018-31.037S291.367,54.315,256.001,54.315	v343.784c0,0,101.29,76.803,129.903,56.015c28.612-20.787-13.132-140.854-13.132-140.854S477.116,240.659,466.187,207.025z"/><path style="fill:#924630" d="M362.142,421.41c-0.101-8.847-1.551-23.846-7.178-47.852c-6.163-26.282-14.005-48.998-14.079-49.212	l-8.407-24.177l21.012-14.62c0.192-0.134,19.481-13.592,39.903-31.181c18.932-16.304,29.029-27.702,34.349-34.853	c-7.013-2.19-18.35-4.806-36.074-6.815c-23.908-2.709-48.006-3.001-57.258-3.001c-3.386,0-5.393,0.036-5.553,0.039l-25.575,0.509	c0,0-42.165-148.716-47.284-155.933c-35.366,0-72.168,121.673-72.168,121.673s-127.09-2.598-138.018,31.037	s93.417,106.235,93.417,106.235s-41.744,120.067-13.132,140.854c28.612,20.788,129.903-56.015,129.903-56.015	S338.764,429.543,362.142,421.41z"/></svg>