<?xml version="1.0" encoding="iso-8859-1"?>
<!-- Generator: Adobe Illustrator 19.0.0, SVG Export Plug-In . SVG Version: 6.00 Build 0)  -->
<svg version="1.1" id="Capa_1" xmlns="http://www.w3.org/2000/svg" xmlns:xlink="http://www.w3.org/1999/xlink" x="0px" y="0px"
	 viewBox="0 0 512 512" style="enable-background:new 0 0 512 512;" xml:space="preserve">
<g>
	<g>
		<g>
			<path d="M481.417,251.344l-76.083-95.094V53.323c0-19.313-13.104-36.313-31.896-41.333C329.083,0.135,258.958,0,256,0
				s-73.083,0.135-117.438,11.99c-18.792,5.021-31.896,22.021-31.896,41.333V156.25l-76.083,95.104
				c-5.958,7.458-9.25,16.833-9.25,26.396c0,23.292,18.958,42.25,42.25,42.25c16.846,0,32.902-8.01,43.083-21.393v32.06
				c0,20.266,8.178,38.622,21.333,52.09v86.577C128,492.865,147.146,512,170.667,512H192c23.521,0,42.667-19.135,42.667-42.667v-64
				h42.667v64C277.333,492.865,296.479,512,320,512h21.333C364.854,512,384,492.865,384,469.333v-86.577
				c13.155-13.467,21.333-31.824,21.333-52.09v-32.06C415.514,311.99,431.57,320,448.417,320c23.292,0,42.25-18.958,42.25-42.25
				C490.667,268.188,487.375,258.813,481.417,251.344z M320,64c11.771,0,21.333,9.573,21.333,21.333
				c0,11.76-9.563,21.333-21.333,21.333s-21.333-9.573-21.333-21.333C298.667,73.573,308.229,64,320,64z M192,64
				c11.771,0,21.333,9.573,21.333,21.333c0,11.76-9.563,21.333-21.333,21.333s-21.333-9.573-21.333-21.333
				C170.667,73.573,180.229,64,192,64z M362.667,234.667c0,23.531-19.146,42.667-42.667,42.667H192
				c-23.521,0-42.667-19.135-42.667-42.667v-64C149.333,147.135,168.479,128,192,128h128c23.521,0,42.667,19.135,42.667,42.667
				V234.667z"/>
			<path d="M320.292,213.333c-3.313,0.167-6.75,1.49-8.833,4.271L288,248.885l-23.458-31.281c-4.042-5.375-13.042-5.375-17.083,0
				L224,248.885l-23.458-31.281c-2.083-2.781-5.229-4.042-8.833-4.271c-3.458,0.104-6.667,1.865-8.583,4.75l-12.132,18.198
				C171.862,247.25,180.802,256,192,256h128c11.198,0,20.138-8.75,21.007-19.719l-12.132-18.198
				C326.958,215.198,323.75,213.438,320.292,213.333z"/>
			<path d="M320,149.333H192c-11.198,0-20.138,8.75-21.007,19.719l12.132,18.198c1.917,2.885,5.125,4.646,8.583,4.75
				c3.542,0.052,6.75-1.49,8.833-4.271L224,156.448l23.458,31.281c4.042,5.375,13.042,5.375,17.083,0L288,156.448l23.458,31.281
				c2.021,2.698,5.188,4.271,8.542,4.271c0.104,0,0.188,0,0.292,0c3.458-0.104,6.667-1.865,8.583-4.75l12.132-18.198
				C340.138,158.083,331.198,149.333,320,149.333z"/>
		</g>
	</g>
</g>
<g>
</g>
<g>
</g>
<g>
</g>
<g>
</g>
<g>
</g>
<g>
</g>
<g>
</g>
<g>
</g>
<g>
</g>
<g>
</g>
<g>
</g>
<g>
</g>
<g>
</g>
<g>
</g>
<g>
</g>
</svg>
