
<svg viewBox="0 0 497.591 497.591" xmlns="http://www.w3.org/2000/svg"><path d="M365.961 54.533c-43.617 0-82.266 21.226-106.217 53.9l118.317 10 94.129-10c-23.953-32.677-62.61-53.9-106.229-53.9zm-234.331 0c-43.62 0-82.277 21.223-106.228 53.9l106.223 10 106.223-10c-23.952-32.674-62.601-53.9-106.218-53.9z" fill="#f387b3"/><path d="M497.409 179.228c-1.371-26.41-10.531-50.754-25.22-70.794H259.743a131.638 131.638 0 0 0-10.948 17.683 131.677 131.677 0 0 0-10.948-17.683H25.402c-14.689 20.04-23.85 44.385-25.221 70.794l248.833 10z" fill="#ffb56d"/><path d="M0 186.163c0 23.238 6.36 44.825 16.813 63.858l232.201 10 232.201-10c10.548-18.852 16.375-40.714 16.375-63.858 0-2.327-.062-4.639-.182-6.936H.181c-.119 2.298-.181 4.61-.181 6.936z" fill="#ffeba8"/><path d="M26.177 264.956c10.631 14.917 31.58 34.78 56.538 55.86l170.126 10 160.364-10c25.437-21.309 46.991-41.257 58.208-55.86 3.623-4.717 6.883-9.717 9.802-14.935H16.813a150.843 150.843 0 0 0 9.364 14.935z" fill="#a1f2c0"/><path d="M365.961 54.533c-5.073 0-10.076.299-14.999.858 37.409 4.246 70.062 24.166 91.228 53.042l16.372 10 13.628-10c-23.953-32.677-62.61-53.9-106.229-53.9z" fill="#d5558c"/><path d="M472.189 108.433h-30c14.689 20.04 23.849 44.385 25.22 70.794l18.247 10 11.753-10c-1.371-26.409-10.531-50.754-25.22-70.794z" fill="#ff9f59"/><path d="M497.409 179.228h-30c.119 2.297.182 4.609.182 6.936 0 23.144-5.828 45.007-16.375 63.858l18.584 10 11.416-10c10.548-18.852 16.375-40.714 16.375-63.858 0-2.327-.062-4.639-.182-6.936z" fill="#fddf7c"/><path d="M451.216 250.022c-2.919 5.217-6.179 10.218-9.803 14.935-11.216 14.602-32.771 34.551-58.208 55.86l12.139 5 17.861-5c25.437-21.309 46.992-41.257 58.208-55.86 3.623-4.717 6.883-9.717 9.803-14.935z" fill="#83e8a3"/><path d="M173.677 391.611l75.118 10 73.811-10c29.097-21.624 62.256-47.051 90.599-70.794H82.715c28.225 23.838 61.573 49.226 90.962 70.794z" fill="#75cff9"/><path d="M383.205 320.816c-28.343 23.743-61.501 49.171-90.599 70.794l17.654 5 12.346-5c29.097-21.624 62.256-47.051 90.599-70.794z" fill="#6cbff8"/><path d="M253.674 441.494c10.609-7.462 37.375-26.432 68.932-49.884H173.677c32.071 23.536 59.418 42.517 70.202 49.936a8.57 8.57 0 0 0 9.795-.052z" fill="#cc98ff"/><path d="M292.606 391.611a3452.686 3452.686 0 0 1-59.004 42.865l10.276 7.07a8.57 8.57 0 0 0 9.796-.051c10.609-7.462 37.375-26.432 68.932-49.884z" fill="#ba87ee"/></svg>