<svg xmlns="http://www.w3.org/2000/svg" xmlns:xlink="http://www.w3.org/1999/xlink" version="1.0"><rect width="63.42" height="8.29" x="0" y="29.015" fill="#f59aa3"/><g fill="#34a7b2" class="tp-name"><path d="M3.15 0.41L3.15-32.01L5.07-31.12L4.55-30.42L4.55 0.41L3.15 0.41ZM3.48-15.43L3.63-16.50L23.54-16.50L23.54-15.43L3.48-15.43ZM22.94 0.41L22.94-32.01L24.87-31.12L24.35-30.42L24.35 0.41L22.94 0.41ZM30.90 0.41L30.90-32.01L32.82-31.12L32.31-30.42L32.31 0.41L30.90 0.41ZM39.00 0.04L39.00-32.75L40.93-31.86L40.41-31.16L40.41 0.04L39.00 0.04ZM51.33-31.16Q53.99-31.16 55.90-29.99Q57.80-28.83 58.77-26.92Q59.73-25.02 59.73-22.87L59.73-22.87Q59.73-20.72 58.77-18.82Q57.80-16.91 55.90-15.75Q53.99-14.58 51.33-14.58L51.33-14.58L51.33-15.62Q53.59-15.62 55.20-16.63Q56.81-17.65 57.62-19.32Q58.43-20.98 58.43-22.87L58.43-22.87Q58.43-24.76 57.62-26.42Q56.81-28.09 55.20-29.11Q53.59-30.12 51.33-30.12L51.33-30.12L51.33-31.16ZM51.33-14.58L39.63-14.58L39.63-15.62L51.33-15.62L51.33-14.58ZM51.33-30.12L39.78-30.12L39.78-31.16L51.33-31.16L51.33-30.12ZM64.65 0.41L64.65-32.01L66.57-31.12L66.06-30.42L66.06 0.41L64.65 0.41Z" transform="translate(-3.1455592105263, 32.750822368421)"/></g></svg>