<svg height="512" viewBox="0 0 128 128" width="512" xmlns="http://www.w3.org/2000/svg"><g><g><path d="m18 90.562h92v6.219h-92z" fill="#ca7af3"/><path d="m18 96.781h92v10.608h-92z" fill="#a151d8"/><circle cx="64" cy="51.818" fill="#e43c54" r="9.551"/><circle cx="79.133" cy="24.938" fill="#36d9f6" r="4.32"/><circle cx="64" cy="73.371" fill="#fdbb00" r="4.32"/></g><g fill="#003239"><path d="m36.875 98.527a1.75 1.75 0 0 0 0-3.5h-1a1.75 1.75 0 0 0 0 3.5z"/><path d="m111.75 90.559a1.749 1.749 0 0 0 -1.75-1.75h-92a1.749 1.749 0 0 0 -1.75 1.75v6.217a1.749 1.749 0 0 0 1.75 1.751h10.75a1.75 1.75 0 0 0 0-3.5h-9v-2.718h88.5v2.718h-64.375a1.75 1.75 0 1 0 0 3.5h66.125a1.749 1.749 0 0 0 1.75-1.75z"/><path d="m110 105.636h-92a1.75 1.75 0 0 0 0 3.5h92a1.75 1.75 0 0 0 0-3.5z"/><path d="m64 84.2a32.417 32.417 0 0 0 31.8-38.55 1.751 1.751 0 0 0 -3.438.663 28.891 28.891 0 1 1 -28.362-23.386 29.521 29.521 0 0 1 3.976.271 1.75 1.75 0 0 0 .476-3.467 32.8 32.8 0 0 0 -4.452-.3 32.388 32.388 0 1 0 0 64.769z"/><path d="m90.116 39.451a1.75 1.75 0 1 0 3.16-1.506q-.2-.428-.418-.847a1.75 1.75 0 1 0 -3.117 1.591c.129.252.253.511.375.762z"/><path d="m55.787 46.63a1.747 1.747 0 0 0 -2.276.972 11.3 11.3 0 1 0 5.521-5.94 1.75 1.75 0 0 0 1.539 3.143 7.793 7.793 0 1 1 -3.812 4.1 1.749 1.749 0 0 0 -.972-2.275z"/><path d="m79.133 31.005a6.026 6.026 0 0 0 3.589-1.186 29 29 0 0 1 3.511 3.551 1.751 1.751 0 1 0 2.694-2.236 32.652 32.652 0 0 0 -4.1-4.113 6.066 6.066 0 1 0 -5.693 3.984zm0-8.641a2.571 2.571 0 1 1 -2.571 2.571 2.574 2.574 0 0 1 2.571-2.571z"/><path d="m64 79.438a6.074 6.074 0 0 0 5.988-5.119 23.271 23.271 0 1 0 -16.313-1.609 1.75 1.75 0 1 0 1.553-3.137 19.81 19.81 0 1 1 14.281 1.26 6.068 6.068 0 1 0 -5.509 8.605zm0-8.638a2.571 2.571 0 1 1 -2.57 2.57 2.573 2.573 0 0 1 2.57-2.57z"/></g></g></svg>