
<svg xmlns="http://www.w3.org/2000/svg" viewBox="0 0.018 161.977 186.181"><title>&#x8D44;&#x6E90; 85</title><g><path d="M139.49 70.66c-3.11 1.78-5.55 3.12-8 4.54-13.41 7.9-26.9 15.69-40.18 23.8-7 4.29-13.6 4.46-20.69.21-21.57-12.95-43.18-25.9-65.04-38.42A11.16 11.16 0 0 1 6 41.43C24.47 31 42.62 20 60.91 9.17c3.91-2.3 7.79-4.63 11.75-6.83 5.46-3 11-3.19 16.47 0 15.9 9.28 31.73 18.66 47.59 28 .3.18.58.41 1.26.89-4.61 2.75-9.32 4.87-13.2 8-6.1 5-11.21 4-17.25-.24-7.34-5.11-15.34-9.26-23-13.94-2.39-1.46-4.38-1.72-7-.14-13 7.9-26.06 15.61-39.11 23.39l-4.72 2.88a28.56 28.56 0 0 0 2.66 2.06Q57.16 65.62 78 78a4.83 4.83 0 0 0 5.66.1c15.8-9.44 31.69-18.74 47.56-28.06 4-2.35 8-4.61 12-7 8.6-5.09 18.7.55 18.73 10.57.06 20.32 0 40.63 0 61 0 5.19-.08 10.39 0 15.59.13 7.15-2.74 12.52-9 16.17-12.63 7.37-25.21 14.84-37.81 22.26-8.46 5-17 9.93-25.39 14.94a16.4 16.4 0 0 1-17.72.06q-30.16-17.67-60.26-35.47c-1.22-.72-2.48-1.37-3.67-2.13-5.29-3.41-8.1-8.11-8.1-14.6.08-18.52 0-37 0-55.56 0-.93.11-1.85.19-3.32l5.33 3.12c4.74 2.73 9.46 5.5 14.24 8.16a4.49 4.49 0 0 1 2.61 4.5c-.11 12.28 0 24.57-.11 36.85a5 5 0 0 0 2.8 4.95Q52 146 78.89 161.94c1.87 1.12 3.2.4 4.67-.47 8.93-5.28 17.85-10.6 26.8-15.87 8.78-5.17 17.54-10.37 26.39-15.42a5.14 5.14 0 0 0 3-5.14c-.12-16.81-.06-33.63-.07-50.45 0-1.02-.1-2.03-.19-3.93z" fill="#6032d8"/></g></svg>