<svg id="Capa_1" enable-background="new 0 0 512 512" height="512" viewBox="0 0 512 512" width="512" xmlns="http://www.w3.org/2000/svg"><g><path d="m256.009 300.538h-224c-12.993 0-19.86-15.487-11.081-25.109l224-245.538c9.211-10.099 26.081-3.555 26.081 10.109v245.538c0 8.284-6.716 15-15 15z" fill="#ff6888"/><path d="m480.009 231h-224c-8.284 0-15-6.716-15-15v-176c0-12.48 14.429-19.523 24.268-11.795l224 176c5.027 3.951 6.999 10.654 4.908 16.698-2.09 6.043-7.782 10.097-14.176 10.097z" fill="#ff515e"/><path d="m271.009 15v337c0 8.28-6.72 15-15 15s-15-6.72-15-15v-337c0-8.28 6.72-15 15-15s15 6.72 15 15z" fill="#f7be48"/><path d="m271.009 15v337c0 8.28-6.72 15-15 15v-367c8.28 0 15 6.72 15 15z" fill="#f99e49"/><path d="m480.009 337h-448c-8.28 0-15 6.72-15 15v64c0 25.53 14.18 50.59 38.91 68.74 23.95 17.58 55.21 27.26 88.02 27.26h224.14c32.81 0 64.07-9.68 88.02-27.26 24.73-18.15 38.91-43.21 38.91-68.74v-64c0-8.28-6.72-15-15-15z" fill="#928bff"/><path d="m495.009 352v64c0 25.53-14.18 50.59-38.91 68.74-23.95 17.58-55.21 27.26-88.02 27.26h-112.07v-175h224c8.28 0 15 6.72 15 15z" fill="#736dd9"/><path d="m160.009 439h-32c-8.284 0-15-6.716-15-15s6.716-15 15-15h32c8.284 0 15 6.716 15 15s-6.716 15-15 15z" fill="#fef77d"/><path d="m384.009 439h-32c-8.284 0-15-6.716-15-15s6.716-15 15-15h32c8.284 0 15 6.716 15 15s-6.716 15-15 15z" fill="#f4de48"/><circle cx="256.009" cy="424" fill="#fef77d" r="15"/><path d="m271.009 424c0 8.216-6.709 15-15 15v-30c8.298 0 15 6.752 15 15z" fill="#f4de48"/></g></svg>