
<svg xmlns="http://www.w3.org/2000/svg" viewBox="0.002 0.07 43.707 43.64"><title>&#x8D44;&#x6E90; 9</title><g data-name="&#x56FE;&#x5C42; 2"><g data-name="Layer 1"><path d="M21.85 43.71a4.76 4.76 0 0 1-3.36-8.12l17.1-17.1a4.76 4.76 0 0 1 6.73 6.73l-17.1 17.1a4.79 4.79 0 0 1-3.37 1.39z" fill="#b896ff"/><path d="M39 26.61a4.78 4.78 0 0 1-3.36-1.39L18.49 8.12a4.76 4.76 0 0 1 6.73-6.73l17.1 17.1A4.76 4.76 0 0 1 39 26.61z" fill="#ff6fc0"/><path d="M21.85 43.71a4.78 4.78 0 0 1-3.36-1.39l-17.1-17.1a4.76 4.76 0 0 1 6.73-6.73l17.1 17.1a4.76 4.76 0 0 1-3.37 8.12z" fill="#6dc998"/><path d="M4.75 26.61a4.76 4.76 0 0 1-3.36-8.12l17.1-17.1a4.76 4.76 0 0 1 6.73 6.73l-17.1 17.1a4.79 4.79 0 0 1-3.37 1.39z" fill="#4ebfe6"/></g></g></svg>