
<svg xmlns="http://www.w3.org/2000/svg" viewBox="-0.053 0 42.726 42.83"><title>&#x8D44;&#x6E90; 2</title><g data-name="&#x56FE;&#x5C42; 2"><g data-name="Layer 1"><path d="M36 33.94a4.6 4.6 0 0 1-2.2-.55 4.73 4.73 0 0 1-2-6.4 12.18 12.18 0 0 0 .78-1.86 12 12 0 0 0-3.82-13 4.74 4.74 0 0 1 6-7.37 21.41 21.41 0 0 1 6.83 23.34 21.94 21.94 0 0 1-1.41 3.31A4.73 4.73 0 0 1 36 33.94z" fill="#ff6fc0"/><path d="M4.75 23.68a5.65 5.65 0 0 1-.75-.05 4.74 4.74 0 0 1-4-5.4A21.46 21.46 0 0 1 20.5 0a4.75 4.75 0 0 1 .33 9.49 12 12 0 0 0-10.93 8.2 12.12 12.12 0 0 0-.46 2 4.75 4.75 0 0 1-4.69 3.99z" fill="#4ebfe6"/><path d="M21.24 42.83A21.41 21.41 0 0 1 3.16 32.9a4.74 4.74 0 0 1 8-5.08 11.82 11.82 0 0 0 6.34 4.93 12 12 0 0 0 8.18-.27 4.74 4.74 0 1 1 3.55 8.8 21.41 21.41 0 0 1-7.99 1.55z" fill="#b896ff"/></g></g></svg>