<svg xmlns="http://www.w3.org/2000/svg" viewBox="-0.007 0 124.319 124.819"><title>资源 9</title><g><g><path fill="#9c49fe" d="M.33 0c31.45.13 67.58.42 99 .66 15.28.12 24.82 9.9 24.87 25.22 0 5.85-.22 11.72.09 17.55.2 3.82-.94 5-4.84 4.92-21.77-.19-43.54-.1-65.31-.08-2.19 0-4.38.1-6.57.16a3.17 3.17 0 0 1-1.35-1.52"/><path fill="#4ad2fe" d="M47.17 48.05a1.57 1.57 0 0 0 .43.38c-.06 23.59-.2 47.18-.11 70.76 0 3.93-.46 5.83-5.19 5.59-7.64-.39-15.34.67-23-.64C8.84 122.34.17 113 .07 102.55c-.18-18.1 0-36.2.1-54.3"/><path fill="#2c3dfc" d="M47.17 48.05l-47 .19L.33 0C14.39 0 28.44.15 42.5.06c3.28 0 5 .51 4.92 4.5-.26 14.49-.19 28.99-.25 43.49z"/><path fill="#feb501" d="M76.78 100.56c0-6.39.15-12.79-.06-19.18-.1-3.21.68-4.52 4.22-4.47q19.74.28 39.49 0c3.34 0 3.94 1.26 3.86 4.18-.17 6.21 0 12.42-.05 18.64-.06 14.31-9.37 24.25-23.65 24.9-6.75.31-13.53-.15-20.29.1-3.18.11-3.6-1.28-3.55-3.89.11-6.75.03-13.52.03-20.28z"/></g></g></svg>