
<svg xmlns="http://www.w3.org/2000/svg" viewBox="0.01 -0.002 170.083 169.342"><title>&#x8D44;&#x6E90; 83</title><g><g><path d="M79 120.37c0 7.13-.18 14.27 0 21.39.43 14.42-9.26 23.73-22.62 27.16-9 2.32-22.52-5.27-25.48-15.43-2.54-8.7-7-12.85-15.58-15.13C6 135.88-1 122.43.13 112.5 1.48 101 10.69 91 22 90.54c17.69-.69 35.41-.27 53.12-.46 3.65 0 4.06 1.87 4 4.76-.08 8.51 0 17 0 25.53z" fill="#3ed1f5"/><path d="M91.44 120.6c0-8.29.15-16.58-.07-24.86-.11-3.93.68-5.8 5.23-5.72 16.34.28 32.69 0 49 .27 12.73.24 22.8 10.25 24.36 23.55 1.23 10.56-7.39 23.09-18.57 25.82-6.27 1.53-9.57 4-10.79 11-1.8 10.42-16 19.64-25.94 18.42-12.93-1.58-22.83-11.91-23.06-24.31-.16-8.05 0-16.11 0-24.17z" fill="#46eb9c"/><path d="M47.45 77.88c-8.05 0-16.1.14-24.14 0C11.62 77.6 5.52 70.61 1.62 60.3-2 50.65 1.45 43 7.09 35.76c4-5.07 9.44-7.95 16.05-7.6 3.64.19 4.19-1.26 4.8-4.64 4.27-24 23.9-27.34 38-20.2 8.27 4.19 13 11.57 13 21.15.15 16.09 0 32.18.22 48.27.07 4.32-1.41 5.52-5.54 5.4-8.73-.26-17.47-.08-26.2-.08z" fill="#fd5e7b"/><path d="M121.31 78.07c-8.28 0-16.58-.18-24.86.07-3.94.12-5.14-1.22-5.09-5.12.23-16.58 0-33.16.28-49.73C91.81 11.92 101 1.65 111.18.5c19.11-2.15 27.77 8.36 29.76 18 1.21 5.89 1.88 9.57 9.79 10.27 11.37 1 20.54 14.82 19.24 25.66-1.6 13.32-11.81 23.21-24.48 23.47-8.06.17-16.12 0-24.18 0z" fill="#7850fe"/></g></g></svg>